<svg width="800" height="800" viewBox="0 0 800 800" fill="none" xmlns="http://www.w3.org/2000/svg">
  <rect width="800" height="800" rx="48" fill="#f8e7d6"/>
  <circle cx="400" cy="250" r="140" fill="#e1a17f"/>
  <path d="M480 250C480 293.137 447.137 326 404 326C360.863 326 328 293.137 328 250C328 206.863 360.863 174 404 174C447.137 174 480 206.863 480 250Z" fill="#f2c1a1"/>
  <path d="M270 430C270 430 320 520 400 520C480 520 530 430 530 430L480 420L440 470L360 470L320 420L270 430Z" fill="#d68a62"/>
  <path d="M220 430L580 430C600 430 615 445 615 465V520C615 540 600 555 580 555H220C200 555 185 540 185 520V465C185 445 200 430 220 430Z" fill="#f5d8c6"/>
  <path d="M220 430L580 430C600 430 615 445 615 465V485H200V465C200 445 215 430 220 430Z" fill="#f1c3a3"/>
  <path d="M255 415C255 415 300 470 400 470C500 470 545 415 545 415" stroke="#b76a39" stroke-width="20" stroke-linecap="round"/>
  <path d="M370 270L375 210" stroke="#9f4b21" stroke-width="18" stroke-linecap="round"/>
  <path d="M400 270L405 210" stroke="#9f4b21" stroke-width="18" stroke-linecap="round"/>
  <path d="M430 270L435 210" stroke="#9f4b21" stroke-width="18" stroke-linecap="round"/>
  <path d="M320 360C320 360 337 388 370 388C403 388 420 360 420 360" stroke="#e2a38b" stroke-width="18" stroke-linecap="round"/>
  <path d="M340 320C340 320 355 345 385 345C415 345 430 320 430 320" stroke="#f4d1c2" stroke-width="14" stroke-linecap="round"/>
  <circle cx="375" cy="260" r="18" fill="#de5a61"/>
  <circle cx="405" cy="240" r="14" fill="#d4585f"/>
  <circle cx="440" cy="270" r="12" fill="#c63b47"/>
  <circle cx="360" cy="250" r="12" fill="#c63b47"/>
  <defs>
    <linearGradient id="paint0_linear" x1="400" y1="160" x2="400" y2="520" gradientUnits="userSpaceOnUse">
      <stop stop-color="#f5c1a0"/>
      <stop offset="1" stop-color="#d7865f"/>
    </linearGradient>
  </defs>
</svg>